<svg width="82" height="82" viewBox="0 0 82 82" fill="none" xmlns="http://www.w3.org/2000/svg">
<path d="M61.5 51.25V61.5H51.25V68.3333H61.5V78.5833H68.3333V68.3333H78.5833V61.5H68.3333V51.25H61.5ZM45.4417 71.75H17.0833C13.325 71.75 10.25 68.675 10.25 64.9167V17.0833C10.25 13.325 13.325 10.25 17.0833 10.25H64.9167C68.675 10.25 71.75 13.325 71.75 17.0833V45.4417C69.7 44.7583 67.3083 44.4167 64.9167 44.4167C61.1583 44.4167 57.4 45.4417 54.325 47.4917L49.5417 41L37.5833 56.375L29.0417 46.125L17.0833 61.5H44.7583C44.4167 62.525 44.4167 63.8917 44.4167 64.9167C44.4167 67.3083 44.7583 69.7 45.4417 71.75Z" fill="#434343"/>
<path d="M61.5 51.25V61.5H51.25V68.3333H61.5V78.5833H68.3333V68.3333H78.5833V61.5H68.3333V51.25H61.5ZM45.4417 71.75H17.0833C13.325 71.75 10.25 68.675 10.25 64.9167V17.0833C10.25 13.325 13.325 10.25 17.0833 10.25H64.9167C68.675 10.25 71.75 13.325 71.75 17.0833V45.4417C69.7 44.7583 67.3083 44.4167 64.9167 44.4167C61.1583 44.4167 57.4 45.4417 54.325 47.4917L49.5417 41L37.5833 56.375L29.0417 46.125L17.0833 61.5H44.7583C44.4167 62.525 44.4167 63.8917 44.4167 64.9167C44.4167 67.3083 44.7583 69.7 45.4417 71.75Z" fill="#888888"/>
</svg>
