<svg width="5" height="11" viewBox="0 0 5 11" fill="none" xmlns="http://www.w3.org/2000/svg">
<path fill-rule="evenodd" clip-rule="evenodd" d="M0.174623 10.2012C0.124741 10.1584 0.0837735 10.1063 0.0540611 10.0477C0.0243486 9.98907 0.00647388 9.9252 0.00145893 9.8597C-0.00355601 9.79419 0.00438726 9.72834 0.0248341 9.66591C0.045281 9.60348 0.0778305 9.54569 0.120623 9.49584L3.84129 5.15451L0.120623 0.813174C0.0393757 0.711956 0.000671316 0.583111 0.0126919 0.453876C0.0247126 0.324642 0.0865161 0.205146 0.185037 0.12065C0.283559 0.0361533 0.411077 -0.0067217 0.540634 0.0010894C0.670191 0.00890051 0.791634 0.0667847 0.87929 0.162506L4.87929 4.82917C4.95693 4.91979 4.99961 5.03518 4.99961 5.15451C4.99961 5.27383 4.95693 5.38923 4.87929 5.47984L0.87929 10.1465C0.792967 10.247 0.670261 10.3092 0.538132 10.3193C0.406003 10.3295 0.275258 10.2867 0.174623 10.2005" fill="black"/>
</svg>
