<svg width="14" height="14" viewBox="0 0 14 14" fill="none" xmlns="http://www.w3.org/2000/svg">
<path d="M2.66667 8H8V6.66667H2.66667V8ZM2.66667 6H10.6667V4.66667H2.66667V6ZM2.66667 4H10.6667V2.66667H2.66667V4ZM0 13.3333V1.33333C0 0.966667 0.130667 0.652889 0.392 0.392C0.653333 0.131111 0.967111 0.000444444 1.33333 0H12C12.3667 0 12.6807 0.130667 12.942 0.392C13.2033 0.653333 13.3338 0.967111 13.3333 1.33333V9.33333C13.3333 9.7 13.2029 10.014 12.942 10.2753C12.6811 10.5367 12.3671 10.6671 12 10.6667H2.66667L0 13.3333ZM2.1 9.33333H12V1.33333H1.33333V10.0833L2.1 9.33333Z" fill="#3392DE"/>
</svg>
