<svg width="16" height="16" viewBox="0 0 16 16" fill="none" xmlns="http://www.w3.org/2000/svg">
<path d="M4.4 7.2C5.33333 9.06667 6.93333 10.6 8.8 11.6L10.2667 10.1333C10.4667 9.93333 10.7333 9.86667 10.9333 10C11.6667 10.2667 12.4667 10.4 13.3333 10.4C13.7333 10.4 14 10.6667 14 11.0667V13.3333C14 13.7333 13.7333 14 13.3333 14C7.06667 14 2 8.93333 2 2.66667C2 2.26667 2.33333 2 2.66667 2H5C5.4 2 5.66667 2.26667 5.66667 2.66667C5.66667 3.46667 5.8 4.26667 6.06667 5.06667C6.13333 5.26667 6.06667 5.53333 5.93333 5.73333L4.4 7.2ZM9.33333 2C8.93333 2 8.66667 2.26667 8.66667 2.66667C8.66667 3.06667 8.93333 3.33333 9.33333 3.33333C9.73333 3.33333 10 3.06667 10 2.66667C10 2.26667 9.73333 2 9.33333 2ZM11.3333 2C10.9333 2 10.6667 2.26667 10.6667 2.66667C10.6667 3.06667 10.9333 3.33333 11.3333 3.33333C11.7333 3.33333 12 3.06667 12 2.66667C12 2.26667 11.7333 2 11.3333 2ZM13.3333 2C12.9333 2 12.6667 2.26667 12.6667 2.66667C12.6667 3.06667 12.9333 3.33333 13.3333 3.33333C13.7333 3.33333 14 3.06667 14 2.66667C14 2.26667 13.7333 2 13.3333 2ZM9.33333 4C8.93333 4 8.66667 4.26667 8.66667 4.66667C8.66667 5.06667 8.93333 5.33333 9.33333 5.33333C9.73333 5.33333 10 5.06667 10 4.66667C10 4.26667 9.73333 4 9.33333 4ZM11.3333 4C10.9333 4 10.6667 4.26667 10.6667 4.66667C10.6667 5.06667 10.9333 5.33333 11.3333 5.33333C11.7333 5.33333 12 5.06667 12 4.66667C12 4.26667 11.7333 4 11.3333 4ZM13.3333 4C12.9333 4 12.6667 4.26667 12.6667 4.66667C12.6667 5.06667 12.9333 5.33333 13.3333 5.33333C13.7333 5.33333 14 5.06667 14 4.66667C14 4.26667 13.7333 4 13.3333 4ZM9.33333 6C8.93333 6 8.66667 6.26667 8.66667 6.66667C8.66667 7.06667 8.93333 7.33333 9.33333 7.33333C9.73333 7.33333 10 7.06667 10 6.66667C10 6.26667 9.73333 6 9.33333 6ZM11.3333 6C10.9333 6 10.6667 6.26667 10.6667 6.66667C10.6667 7.06667 10.9333 7.33333 11.3333 7.33333C11.7333 7.33333 12 7.06667 12 6.66667C12 6.26667 11.7333 6 11.3333 6ZM13.3333 6C12.9333 6 12.6667 6.26667 12.6667 6.66667C12.6667 7.06667 12.9333 7.33333 13.3333 7.33333C13.7333 7.33333 14 7.06667 14 6.66667C14 6.26667 13.7333 6 13.3333 6Z" fill="white"/>
</svg>
