<svg width="27" height="26" viewBox="0 0 27 26" fill="none" xmlns="http://www.w3.org/2000/svg">
<path d="M26.2667 15.0667L24.9333 16.4L22.2667 13.7333L23.6 12.4C23.7333 12.2667 23.8667 12.1333 24.1333 12.1333C24.2667 12.1333 24.5333 12.2667 24.6667 12.4L26.4 14.1333C26.5333 14.4 26.5333 14.8 26.2667 15.0667ZM13.3333 22.5333V25.3333H16.1333L24.2667 17.2L21.6 14.5333L13.3333 22.5333ZM10.9467 17.1067L8.33333 13.96L4.66667 18.6667H13.4933L16.88 15.4L14.6133 12.3867L10.9467 17.1067ZM10.6667 22.5333V21.4L10.7333 21.3333H2.66667V2.66667H21.3333V11.08L24 8.50667V2.66667C24 1.95942 23.719 1.28115 23.219 0.781048C22.7189 0.280951 22.0406 0 21.3333 0H2.66667C1.2 0 0 1.2 0 2.66667V21.3333C0 22.0406 0.280951 22.7189 0.781048 23.219C1.28115 23.719 1.95942 24 2.66667 24H10.6667V22.5333Z" fill="black"/>
</svg>
