<svg width="15" height="12" viewBox="0 0 15 12" fill="none" xmlns="http://www.w3.org/2000/svg">
<path d="M0.666667 0.846667L1.52 0L12.6667 11.1467L11.82 12L9.76667 9.94667C9 10.2 8.18667 10.3333 7.33333 10.3333C4 10.3333 1.15333 8.26 0 5.33333C0.46 4.16 1.19333 3.12667 2.12667 2.30667L0.666667 0.846667ZM7.33333 3.33333C7.86377 3.33333 8.37247 3.54405 8.74755 3.91912C9.12262 4.29419 9.33333 4.8029 9.33333 5.33333C9.33367 5.56038 9.29535 5.78582 9.22 6L6.66667 3.44667C6.88085 3.37132 7.10629 3.333 7.33333 3.33333ZM7.33333 0.333333C10.6667 0.333333 13.5133 2.40667 14.6667 5.33333C14.1222 6.71529 13.1977 7.91488 12 8.79333L11.0533 7.84C11.9753 7.2023 12.7189 6.3394 13.2133 5.33333C12.6744 4.23324 11.8377 3.30642 10.7982 2.65824C9.75879 2.01005 8.55833 1.66651 7.33333 1.66667C6.60667 1.66667 5.89333 1.78667 5.22667 2L4.2 0.98C5.16 0.566667 6.22 0.333333 7.33333 0.333333ZM1.45333 5.33333C1.99223 6.43342 2.82897 7.36025 3.86842 8.00843C4.90788 8.65662 6.10834 9.00016 7.33333 9C7.79333 9 8.24667 8.95333 8.66667 8.86L7.14667 7.33333C6.68278 7.28361 6.24988 7.07658 5.91998 6.74668C5.59008 6.41678 5.38306 5.98389 5.33333 5.52L3.06667 3.24667C2.40667 3.81333 1.85333 4.52 1.45333 5.33333Z" fill="black"/>
</svg>
