<svg width="15" height="10" viewBox="0 0 15 10" fill="none" xmlns="http://www.w3.org/2000/svg">
<path d="M7.33333 3C7.86377 3 8.37247 3.21071 8.74755 3.58579C9.12262 3.96086 9.33333 4.46957 9.33333 5C9.33333 5.53043 9.12262 6.03914 8.74755 6.41421C8.37247 6.78929 7.86377 7 7.33333 7C6.8029 7 6.29419 6.78929 5.91912 6.41421C5.54405 6.03914 5.33333 5.53043 5.33333 5C5.33333 4.46957 5.54405 3.96086 5.91912 3.58579C6.29419 3.21071 6.8029 3 7.33333 3ZM7.33333 0C10.6667 0 13.5133 2.07333 14.6667 5C13.5133 7.92667 10.6667 10 7.33333 10C4 10 1.15333 7.92667 0 5C1.15333 2.07333 4 0 7.33333 0ZM1.45333 5C1.99217 6.1002 2.82887 7.02717 3.86832 7.6755C4.90777 8.32384 6.10826 8.66755 7.33333 8.66755C8.5584 8.66755 9.7589 8.32384 10.7983 7.6755C11.8378 7.02717 12.6745 6.1002 13.2133 5C12.6745 3.8998 11.8378 2.97283 10.7983 2.3245C9.7589 1.67616 8.5584 1.33245 7.33333 1.33245C6.10826 1.33245 4.90777 1.67616 3.86832 2.3245C2.82887 2.97283 1.99217 3.8998 1.45333 5Z" fill="black"/>
</svg>
