<svg width="27" height="25" viewBox="0 0 27 25" fill="none" xmlns="http://www.w3.org/2000/svg">
<path d="M13.3334 24.4667L15.2667 22.7333C17.5112 20.7111 19.3667 18.9667 20.8334 17.5C22.3001 16.0333 23.4667 14.7164 24.3334 13.5493C25.2001 12.3822 25.8054 11.3102 26.1494 10.3333C26.4934 9.35645 26.6659 8.35644 26.6667 7.33333C26.6667 5.24444 25.9667 3.5 24.5667 2.1C23.1667 0.7 21.4223 0 19.3334 0C18.1779 0 17.0779 0.244444 16.0334 0.733333C14.989 1.22222 14.089 1.91111 13.3334 2.8C12.5779 1.91111 11.6779 1.22222 10.6334 0.733333C9.58897 0.244444 8.48897 0 7.33341 0C5.24452 0 3.50008 0.7 2.10008 2.1C0.700077 3.5 7.62939e-05 5.24444 7.62939e-05 7.33333C7.62939e-05 8.35556 0.172075 9.35556 0.516075 10.3333C0.860075 11.3111 1.46585 12.3831 2.33341 13.5493C3.20097 14.7156 4.36763 16.0324 5.83341 17.5C7.29919 18.9676 9.15475 20.712 11.4001 22.7333L13.3334 24.4667Z" fill="white"/>
</svg>
