<svg width="16" height="16" viewBox="0 0 16 16" fill="none" xmlns="http://www.w3.org/2000/svg">
<mask id="path-1-inside-1_3010_905" fill="white">
<path d="M3.74396 13.3332C3.43685 13.3332 3.18063 13.2305 2.97529 13.0252C2.76996 12.8198 2.66707 12.5634 2.66663 12.2558V3.74384C2.66663 3.43673 2.76951 3.1805 2.97529 2.97517C3.18107 2.76984 3.43729 2.66695 3.74396 2.6665H8.01263V3.33317H3.74396C3.64129 3.33317 3.54707 3.37584 3.46129 3.46117C3.37551 3.5465 3.33285 3.64073 3.33329 3.74384V12.2565C3.33329 12.3587 3.37596 12.4527 3.46129 12.5385C3.54663 12.6243 3.64063 12.6669 3.74329 12.6665H8.01263V13.3332H3.74396ZM10.9746 10.3592L10.5066 9.87917L12.0526 8.33317H6.12796V7.6665H12.0526L10.506 6.11984L10.974 5.64117L13.3333 7.99984L10.9746 10.3592Z"/>
</mask>
<path d="M3.74396 13.3332C3.43685 13.3332 3.18063 13.2305 2.97529 13.0252C2.76996 12.8198 2.66707 12.5634 2.66663 12.2558V3.74384C2.66663 3.43673 2.76951 3.1805 2.97529 2.97517C3.18107 2.76984 3.43729 2.66695 3.74396 2.6665H8.01263V3.33317H3.74396C3.64129 3.33317 3.54707 3.37584 3.46129 3.46117C3.37551 3.5465 3.33285 3.64073 3.33329 3.74384V12.2565C3.33329 12.3587 3.37596 12.4527 3.46129 12.5385C3.54663 12.6243 3.64063 12.6669 3.74329 12.6665H8.01263V13.3332H3.74396ZM10.9746 10.3592L10.5066 9.87917L12.0526 8.33317H6.12796V7.6665H12.0526L10.506 6.11984L10.974 5.64117L13.3333 7.99984L10.9746 10.3592Z" fill="black"/>
<path d="M2.66663 12.2558L1.66662 12.2558L1.66663 12.2573L2.66663 12.2558ZM3.74396 2.6665L3.74396 1.6665L3.74251 1.6665L3.74396 2.6665ZM8.01263 2.6665H9.01263V1.6665H8.01263V2.6665ZM8.01263 3.33317V4.33317H9.01263V3.33317H8.01263ZM3.33329 3.74384L4.3333 3.74384L4.33328 3.73953L3.33329 3.74384ZM3.74329 12.6665L3.74329 11.6665L3.73896 11.6665L3.74329 12.6665ZM8.01263 12.6665H9.01263V11.6665H8.01263V12.6665ZM8.01263 13.3332V14.3332H9.01263V13.3332H8.01263ZM10.9746 10.3592L10.2586 11.0573L10.9657 11.7825L11.6818 11.0662L10.9746 10.3592ZM10.5066 9.87917L9.79952 9.17206L9.10131 9.87028L9.79063 10.5773L10.5066 9.87917ZM12.0526 8.33317L12.7597 9.04028L14.4668 7.33317H12.0526V8.33317ZM6.12796 8.33317H5.12796V9.33317H6.12796V8.33317ZM6.12796 7.6665V6.6665H5.12796V7.6665H6.12796ZM12.0526 7.6665V8.6665H14.4668L12.7597 6.9594L12.0526 7.6665ZM10.506 6.11984L9.79093 5.42074L9.09967 6.12776L9.79885 6.82694L10.506 6.11984ZM10.974 5.64117L11.681 4.93396L10.9658 4.21905L10.2589 4.94208L10.974 5.64117ZM13.3333 7.99984L14.0405 8.70684L14.7475 7.99964L14.0403 7.29263L13.3333 7.99984ZM3.74396 13.3332V12.3332C3.723 12.3332 3.70962 12.3314 3.70246 12.3301C3.69883 12.3295 3.69647 12.3289 3.69517 12.3285C3.69451 12.3283 3.69406 12.3281 3.69379 12.3281C3.69353 12.328 3.69341 12.3279 3.6934 12.3279C3.6934 12.3279 3.69342 12.3279 3.69346 12.3279C3.6935 12.328 3.69355 12.328 3.69361 12.328C3.69374 12.3281 3.69388 12.3281 3.69401 12.3282C3.69431 12.3284 3.6943 12.3284 3.6939 12.3281C3.69334 12.3277 3.68943 12.3251 3.6824 12.3181L2.97529 13.0252L2.26819 13.7323C2.67272 14.1368 3.1886 14.3332 3.74396 14.3332V13.3332ZM2.97529 13.0252L3.6824 12.3181C3.67537 12.311 3.67268 12.3071 3.67224 12.3064C3.67195 12.306 3.67193 12.3059 3.67205 12.3061C3.67217 12.3064 3.67223 12.3065 3.67221 12.3065C3.67219 12.3064 3.67193 12.3058 3.67153 12.3044C3.67113 12.303 3.67048 12.3005 3.66979 12.2967C3.66843 12.2893 3.66666 12.2756 3.66662 12.2544L2.66663 12.2558L1.66663 12.2573C1.66743 12.8122 1.86373 13.3278 2.26819 13.7323L2.97529 13.0252ZM2.66663 12.2558H3.66663V3.74384H2.66663H1.66663V12.2558H2.66663ZM2.66663 3.74384H3.66663C3.66663 3.70363 3.67296 3.69101 3.67177 3.69398C3.67154 3.69455 3.67121 3.69505 3.6715 3.69461C3.67187 3.69406 3.67454 3.69012 3.68163 3.68304L2.97529 2.97517L2.26895 2.2673C1.86369 2.67168 1.66663 3.1878 1.66663 3.74384H2.66663ZM2.97529 2.97517L3.68163 3.68304C3.68896 3.67573 3.69318 3.67283 3.69406 3.67224C3.69462 3.67187 3.69478 3.6718 3.69463 3.67188C3.69447 3.67197 3.69436 3.67201 3.69443 3.67198C3.69451 3.67195 3.69514 3.6717 3.69651 3.6713C3.69788 3.67091 3.70031 3.67028 3.70398 3.66961C3.71121 3.66828 3.72456 3.66653 3.74541 3.6665L3.74396 2.6665L3.74251 1.6665C3.18763 1.66731 2.67296 1.86416 2.26895 2.2673L2.97529 2.97517ZM3.74396 2.6665V3.6665H8.01263V2.6665V1.6665H3.74396V2.6665ZM8.01263 2.6665H7.01263V3.33317H8.01263H9.01263V2.6665H8.01263ZM8.01263 3.33317V2.33317H3.74396V3.33317V4.33317H8.01263V3.33317ZM3.74396 3.33317V2.33317C3.33022 2.33317 2.99321 2.51627 2.75602 2.75223L3.46129 3.46117L4.16656 4.17011C4.13883 4.1977 4.08733 4.24056 4.0088 4.27612C3.92731 4.31303 3.83599 4.33317 3.74396 4.33317V3.33317ZM3.46129 3.46117L2.75602 2.75223C2.51607 2.99094 2.3315 3.33114 2.3333 3.74815L3.33329 3.74384L4.33328 3.73953C4.33368 3.83216 4.31368 3.92495 4.27591 4.00834C4.23951 4.08873 4.19531 4.14151 4.16656 4.17011L3.46129 3.46117ZM3.33329 3.74384H2.33329V12.2565H3.33329H4.33329V3.74384H3.33329ZM3.33329 12.2565H2.33329C2.33329 12.671 2.51737 13.0076 2.75235 13.2438L3.46129 12.5385L4.17023 11.8332C4.19746 11.8606 4.24026 11.9119 4.27588 11.9904C4.31287 12.0719 4.33329 12.1636 4.33329 12.2565H3.33329ZM3.46129 12.5385L2.75235 13.2438C2.99008 13.4827 3.32986 13.6683 3.74762 13.6665L3.74329 12.6665L3.73896 11.6665C3.83247 11.6661 3.9257 11.6864 4.00911 11.7242C4.08944 11.7607 4.14199 11.8048 4.17023 11.8332L3.46129 12.5385ZM3.74329 12.6665V13.6665H8.01263V12.6665V11.6665H3.74329V12.6665ZM8.01263 12.6665H7.01263V13.3332H8.01263H9.01263V12.6665H8.01263ZM8.01263 13.3332V12.3332H3.74396V13.3332V14.3332H8.01263V13.3332ZM10.9746 10.3592L11.6906 9.66107L11.2226 9.18107L10.5066 9.87917L9.79063 10.5773L10.2586 11.0573L10.9746 10.3592ZM10.5066 9.87917L11.2137 10.5863L12.7597 9.04028L12.0526 8.33317L11.3455 7.62606L9.79952 9.17206L10.5066 9.87917ZM12.0526 8.33317V7.33317H6.12796V8.33317V9.33317H12.0526V8.33317ZM6.12796 8.33317H7.12796V7.6665H6.12796H5.12796V8.33317H6.12796ZM6.12796 7.6665V8.6665H12.0526V7.6665V6.6665H6.12796V7.6665ZM12.0526 7.6665L12.7597 6.9594L11.2131 5.41273L10.506 6.11984L9.79885 6.82694L11.3455 8.37361L12.0526 7.6665ZM10.506 6.11984L11.221 6.81893L11.689 6.34027L10.974 5.64117L10.2589 4.94208L9.79093 5.42074L10.506 6.11984ZM10.974 5.64117L10.267 6.34838L12.6263 8.70704L13.3333 7.99984L14.0403 7.29263L11.681 4.93396L10.974 5.64117ZM13.3333 7.99984L12.6261 7.29283L10.2674 9.65216L10.9746 10.3592L11.6818 11.0662L14.0405 8.70684L13.3333 7.99984Z" fill="black" mask="url(#path-1-inside-1_3010_905)"/>
</svg>
