<svg width="16" height="16" viewBox="0 0 16 16" fill="none" xmlns="http://www.w3.org/2000/svg">
<g clip-path="url(#clip0_3047_1862)">
<path d="M5.86667 12.2592L6.3104 11.9627C6.26162 11.8897 6.1956 11.83 6.1182 11.7887C6.0408 11.7474 5.9544 11.7258 5.86667 11.7259V12.2592ZM8 15.4571L7.55627 15.7525C7.60497 15.8256 7.67096 15.8855 7.74836 15.9269C7.82577 15.9683 7.91221 15.99 8 15.99C8.08779 15.99 8.17423 15.9683 8.25164 15.9269C8.32904 15.8855 8.39503 15.8256 8.44373 15.7525L8 15.4571ZM10.1333 12.2592V11.7259C10.0456 11.7258 9.9592 11.7474 9.8818 11.7887C9.8044 11.83 9.73838 11.8897 9.6896 11.9627L10.1333 12.2592ZM5.42293 12.5547L7.55627 15.7525L8.44373 15.1605L6.3104 11.9627L5.42293 12.5547ZM8.44373 15.7525L10.5771 12.5547L9.6896 11.9627L7.55627 15.1605L8.44373 15.7525ZM10.1333 12.7925H14.4V11.7259H10.1333V12.7925ZM14.4 12.7925C15.2843 12.7925 16 12.0779 16 11.1925H14.9333C14.9333 11.488 14.6955 11.7259 14.4 11.7259V12.7925ZM16 11.1925V1.6H14.9333V11.1936L16 11.1925ZM16 1.6C16 0.714667 15.2843 0 14.4 0V1.06667C14.6955 1.06667 14.9333 1.30453 14.9333 1.6H16ZM14.4 0H1.6V1.06667H14.4V0ZM1.6 0C0.715733 0 0 0.714667 0 1.6H1.06667C1.06667 1.30453 1.30453 1.06667 1.6 1.06667V0ZM0 1.6V11.1936H1.06667V1.59893L0 1.6ZM0 11.1936C0 12.0779 0.715733 12.7925 1.6 12.7925V11.7259C1.45855 11.7259 1.3229 11.6697 1.22288 11.5697C1.12286 11.4696 1.06667 11.334 1.06667 11.1925L0 11.1936ZM1.6 12.7925H5.86667V11.7259H1.6V12.7925ZM8 9.6C7.29276 9.6 6.61448 9.31905 6.11438 8.81895C5.61428 8.31886 5.33333 7.64058 5.33333 6.93333H4.26667C4.26667 7.92348 4.66 8.87306 5.36014 9.5732C6.06027 10.2733 7.00986 10.6667 8 10.6667V9.6ZM10.6667 6.93333C10.6667 7.64058 10.3857 8.31886 9.88562 8.81895C9.38552 9.31905 8.70724 9.6 8 9.6V10.6667C8.99014 10.6667 9.93973 10.2733 10.6399 9.5732C11.34 8.87306 11.7333 7.92348 11.7333 6.93333H10.6667ZM8 4.26667C8.70724 4.26667 9.38552 4.54762 9.88562 5.04772C10.3857 5.54781 10.6667 6.22609 10.6667 6.93333H11.7333C11.7333 5.94319 11.34 4.9936 10.6399 4.29347C9.93973 3.59333 8.99014 3.2 8 3.2V4.26667ZM8 3.2C7.00986 3.2 6.06027 3.59333 5.36014 4.29347C4.66 4.9936 4.26667 5.94319 4.26667 6.93333H5.33333C5.33333 6.22609 5.61428 5.54781 6.11438 5.04772C6.61448 4.54762 7.29276 4.26667 8 4.26667V3.2ZM9.75573 4.4224L5.48907 8.68907L6.24427 9.44427L10.5109 5.1776L9.75573 4.4224Z" fill="black"/>
</g>
<defs>
<clipPath id="clip0_3047_1862">
<rect width="16" height="16" fill="white"/>
</clipPath>
</defs>
</svg>
