<svg width="32" height="32" viewBox="0 0 32 32" fill="none" xmlns="http://www.w3.org/2000/svg">
<path d="M23.4279 3.21733C23.2598 3.0167 23.1771 2.75816 23.1975 2.49721C23.2178 2.23626 23.3397 1.99371 23.537 1.82162C23.7342 1.64953 23.991 1.56163 24.2523 1.57678C24.5136 1.59193 24.7586 1.70894 24.9346 1.90267L26.6572 3.876C27.6341 4.99542 28.1863 6.42263 28.2172 7.908L28.2932 11.5333C28.2987 11.7986 28.1986 12.0551 28.015 12.2465C27.8313 12.4379 27.5791 12.5485 27.3139 12.554C27.0487 12.5595 26.7922 12.4594 26.6008 12.2757C26.4093 12.0921 26.2987 11.8399 26.2932 11.5747L26.2186 7.95067C26.1972 6.9343 25.8191 5.95781 25.1506 5.192L23.4279 3.21733Z" fill="white"/>
<path fill-rule="evenodd" clip-rule="evenodd" d="M23.6839 10.2667C23.5944 8.84018 22.9645 7.50144 21.9227 6.52298C20.8808 5.54452 19.5052 4.99991 18.0759 5H17.3332V4C17.3332 3.64638 17.1928 3.30724 16.9427 3.05719C16.6927 2.80714 16.3535 2.66667 15.9999 2.66667C15.6463 2.66667 15.3071 2.80714 15.0571 3.05719C14.807 3.30724 14.6666 3.64638 14.6666 4V5H13.9239C12.4946 4.99991 11.119 5.54452 10.0771 6.52298C9.03526 7.50144 8.40545 8.84018 8.3159 10.2667L8.02124 14.9787C7.90733 16.775 7.30423 18.5059 6.27724 19.984C6.06475 20.2894 5.93492 20.6446 5.90036 21.0151C5.86581 21.3855 5.92771 21.7586 6.08006 22.0981C6.2324 22.4375 6.46999 22.7318 6.76973 22.9522C7.06947 23.1726 7.42115 23.3117 7.79057 23.356L12.3332 23.9V25.3333C12.3332 26.3058 12.7195 27.2384 13.4072 27.9261C14.0948 28.6137 15.0274 29 15.9999 29C16.9724 29 17.905 28.6137 18.5926 27.9261C19.2803 27.2384 19.6666 26.3058 19.6666 25.3333V23.9L24.2092 23.3547C24.5784 23.3103 24.9299 23.1712 25.2294 22.9508C25.529 22.7305 25.7665 22.4364 25.9188 22.0971C26.0711 21.7579 26.1331 21.385 26.0987 21.0148C26.0643 20.6445 25.9347 20.2894 25.7226 19.984C24.6956 18.5059 24.0925 16.775 23.9786 14.9787L23.6839 10.2667ZM17.6666 25.3333C17.6666 25.7754 17.491 26.1993 17.1784 26.5118C16.8659 26.8244 16.4419 27 15.9999 27C15.5579 27 15.134 26.8244 14.8214 26.5118C14.5088 26.1993 14.3332 25.7754 14.3332 25.3333V24.3333H17.6666V25.3333Z" fill="white"/>
<path d="M8.47597 1.80667C8.67572 1.98103 8.79805 2.22759 8.81605 2.49212C8.83405 2.75666 8.74626 3.01751 8.57198 3.21733L6.84931 5.19067C6.18093 5.95702 5.80335 6.93401 5.78264 7.95067L5.70664 11.5733C5.70393 11.7047 5.67537 11.8342 5.62261 11.9544C5.56985 12.0747 5.49391 12.1835 5.39913 12.2744C5.30436 12.3653 5.19259 12.4367 5.07023 12.4845C4.94787 12.5322 4.8173 12.5554 4.68597 12.5527C4.55465 12.55 4.42515 12.5214 4.30486 12.4686C4.18458 12.4159 4.07586 12.3399 3.98492 12.2452C3.89398 12.1504 3.8226 12.0386 3.77485 11.9163C3.72711 11.7939 3.70393 11.6633 3.70664 11.532L3.78264 7.908C3.81362 6.42263 4.36582 4.99542 5.34264 3.876L7.06531 1.90267C7.23967 1.70292 7.48623 1.58059 7.75076 1.56259C8.0153 1.54459 8.27616 1.63238 8.47597 1.80667Z" fill="white"/>
</svg>
