<svg width="16" height="16" viewBox="0 0 16 16" fill="none" xmlns="http://www.w3.org/2000/svg">
<path d="M8.0001 10.5L8.7001 11.2L7.4001 12.5H11.5001V13.5H7.4001L8.7001 14.8L8.0001 15.5L5.5001 13L8.0001 10.5ZM3.6311 11.6615L7.6261 7.6665L8.3336 8.3735L4.3386 12.3685L3.6311 11.6615Z" fill="black"/>
<path d="M11.4999 11H10.4999V8.5C10.4999 8.35 10.5499 8.25 10.6499 8.15L12.6999 6.1C13.5499 5.25 13.9999 4.1 13.9999 2.9V2H13.0499C11.8499 2 10.6999 2.45 9.84993 3.3L7.79993 5.35C7.74993 5.45 7.64993 5.5 7.49993 5.5H3.74993L2.44993 7.15L5.09993 7.55L4.94993 8.55L1.44993 8.05C1.24993 8 1.09993 7.9 1.04993 7.75C0.999933 7.6 0.999933 7.4 1.09993 7.25L3.09993 4.75C3.19993 4.55 3.34993 4.5 3.49993 4.5H7.29993L9.19993 2.6C10.1999 1.55 11.5999 1 13.0499 1H13.9999C14.5499 1 14.9999 1.45 14.9999 2V2.95C14.9999 4.4 14.4499 5.8 13.3999 6.85L11.4999 8.7V11Z" fill="black"/>
</svg>
