<svg width="16" height="16" viewBox="0 0 16 16" fill="none" xmlns="http://www.w3.org/2000/svg">
<path d="M13.0254 2.48199C12.1587 3.15932 11.3794 3.31265 10.6294 3.23132C9.84275 3.14665 9.06808 2.80465 8.20408 2.41932L8.16875 2.40332C7.34542 2.03532 6.43541 1.62865 5.47808 1.52532C4.47075 1.41665 3.43141 1.64265 2.35875 2.48132C2.29892 2.5281 2.25054 2.58789 2.21728 2.65616C2.18401 2.72443 2.16673 2.79938 2.16675 2.87532V14C2.16675 14.1326 2.21943 14.2598 2.31319 14.3535C2.40696 14.4473 2.53414 14.5 2.66675 14.5C2.79936 14.5 2.92653 14.4473 3.0203 14.3535C3.11407 14.2598 3.16675 14.1326 3.16675 14V10.7093C3.95741 10.1527 4.67608 10.0273 5.37075 10.1027C6.15741 10.1867 6.93208 10.5287 7.79608 10.9147L7.83141 10.93C8.65475 11.2987 9.56475 11.7047 10.5221 11.808C11.5294 11.9167 12.5687 11.6907 13.6414 10.852C13.7012 10.8052 13.7496 10.7454 13.7829 10.6771C13.8162 10.6089 13.8334 10.5339 13.8334 10.458V2.87532C13.8333 2.78165 13.8069 2.6899 13.7572 2.61051C13.7075 2.53112 13.6365 2.46729 13.5523 2.4263C13.468 2.3853 13.374 2.36878 13.2809 2.37863C13.1877 2.38847 13.0992 2.42429 13.0254 2.48199Z" fill="#8C0707"/>
</svg>
