<svg width="32" height="32" viewBox="0 0 32 32" fill="none" xmlns="http://www.w3.org/2000/svg">
<path d="M16.0001 5.33333C14.5856 5.33333 13.229 5.89523 12.2288 6.89543C11.2287 7.89562 10.6668 9.25218 10.6668 10.6667C10.6668 12.0812 11.2287 13.4377 12.2288 14.4379C13.229 15.4381 14.5856 16 16.0001 16C17.4146 16 18.7711 15.4381 19.7713 14.4379C20.7715 13.4377 21.3334 12.0812 21.3334 10.6667C21.3334 9.25218 20.7715 7.89562 19.7713 6.89543C18.7711 5.89523 17.4146 5.33333 16.0001 5.33333ZM16.0001 18.6667C10.1068 18.6667 5.33342 21.0533 5.33342 24V26.6667H26.6667V24C26.6667 21.0533 21.8934 18.6667 16.0001 18.6667Z" fill="white"/>
</svg>
